<?xml version="1.0" encoding="utf-8"?>
<svg width="61px" height="14px" viewBox="0 0 61 14" version="1.1" xmlns:xlink="http://www.w3.org/1999/xlink" xmlns="http://www.w3.org/2000/svg">
  <g id="OPTIFIX">
    <path d="M0.521484 7.05273Q0.521484 5.74024 0.914063 4.84961Q1.20703 4.19336 1.71387 3.67188Q2.2207 3.15039 2.82422 2.89844Q3.62695 2.55859 4.67578 2.55859Q6.57422 2.55859 7.71387 3.73633Q8.85352 4.91406 8.85352 7.01172Q8.85352 9.0918 7.72266 10.2666Q6.5918 11.4414 4.69922 11.4414Q2.7832 11.4414 1.65234 10.2725Q0.521484 9.10352 0.521484 7.05273ZM12.207 11.2949L12.207 2.70508L14.9902 2.70508Q16.5723 2.70508 17.0527 2.83398Q17.791 3.02734 18.2891 3.6748Q18.7871 4.32227 18.7871 5.34766Q18.7871 6.13867 18.5 6.67773Q18.2129 7.2168 17.7705 7.52441Q17.3281 7.83203 16.8711 7.93164Q16.25 8.05469 15.0723 8.05469L13.9414 8.05469L13.9414 11.2949L12.207 11.2949ZM24.1445 4.1582L24.1445 11.2949L25.8789 11.2949L25.8789 4.1582L28.4219 4.1582L28.4219 2.70508L21.5957 2.70508L21.5957 4.1582L24.1445 4.1582ZM31.4883 11.2949L31.4883 2.70508L33.2227 2.70508L33.2227 11.2949L31.4883 11.2949ZM36.8867 2.70508L36.8867 11.2949L38.6211 11.2949L38.6211 7.64453L42.207 7.64453L42.207 6.19141L38.6211 6.19141L38.6211 4.1582L42.7754 4.1582L42.7754 2.70508L36.8867 2.70508ZM46.1523 11.2949L46.1523 2.70508L47.8867 2.70508L47.8867 11.2949L46.1523 11.2949ZM53.6016 6.8125L50.666 11.2949L52.7461 11.2949L54.6563 8.32422L56.5605 11.2949L58.6523 11.2949L55.7168 6.87695L58.3887 2.70508L56.3789 2.70508L54.6914 5.46484L52.9688 2.70508L50.9414 2.70508L53.6016 6.8125ZM2.30859 6.99414Q2.30859 8.45313 2.98242 9.20605Q3.65625 9.95898 4.69336 9.95898Q5.73047 9.95898 6.39551 9.21191Q7.06055 8.46484 7.06055 6.9707Q7.06055 5.49414 6.41309 4.76758Q5.76562 4.04102 4.69336 4.04102Q3.62109 4.04102 2.96484 4.77637Q2.30859 5.51172 2.30859 6.99414ZM13.9414 4.1582L13.9414 6.5957L14.8906 6.5957Q15.916 6.5957 16.2617 6.46094Q16.6074 6.32617 16.8037 6.03906Q17 5.75195 17 5.37109Q17 4.90234 16.7246 4.59766Q16.4492 4.29297 16.0273 4.2168Q15.7168 4.1582 14.7793 4.1582L13.9414 4.1582Z" />
  </g>
</svg>